<svg width="53" height="60" viewBox="0 0 53 60" fill="none" xmlns="http://www.w3.org/2000/svg">
<path d="M26.4217 12.9617V58.7291C26.4217 58.7291 0.659912 61.4213 0.659912 48.7561C0.659912 48.7561 7.57955 49.6357 6.16284 43.8153C4.36691 36.4367 5.37152 24.4865 6.16284 17.9551C6.95416 11.4234 26.4217 12.9617 26.4217 12.9617Z" fill="#330C00"/>
<path d="M26.3384 12.9617V58.7291C26.3384 58.7291 52.1002 61.4213 52.1002 48.7561C52.1002 48.7561 45.1806 49.6357 46.5973 43.8153C48.3932 36.4367 47.3886 24.4865 46.5973 17.9551C45.8057 11.4234 26.3384 12.9617 26.3384 12.9617Z" fill="#330C00"/>
<path d="M26.8713 51.9225V45.2546C26.8713 45.2546 37.3661 44.934 37.3661 51.3398L26.8713 51.9225Z" fill="#00B497"/>
<path d="M25.9721 51.9225V45.2546C25.9721 45.2546 15.4773 44.934 15.4773 51.3398L25.9721 51.9225Z" fill="#00B497"/>
<path d="M30.5906 45.2545H22.2534V54.6717H30.5906V45.2545Z" fill="#FDCC9B"/>
<path d="M22.2534 46.3637C22.2534 46.3637 25.7602 48.616 30.5906 48.0946V45.2545H22.2534V46.3637Z" fill="#FCBC85"/>
<path d="M10.2311 35.3329C12.4779 35.3329 14.2992 33.2372 14.2992 30.6521C14.2992 28.067 12.4779 25.9714 10.2311 25.9714C7.98442 25.9714 6.16309 28.067 6.16309 30.6521C6.16309 33.2372 7.98442 35.3329 10.2311 35.3329Z" fill="#FCBC85"/>
<path d="M42.6122 35.3329C44.859 35.3329 46.6803 33.2372 46.6803 30.6521C46.6803 28.067 44.859 25.9714 42.6122 25.9714C40.3655 25.9714 38.5442 28.067 38.5442 30.6521C38.5442 33.2372 40.3655 35.3329 42.6122 35.3329Z" fill="#FCBC85"/>
<path d="M42.5955 21.7118C42.5955 14.8171 37.5932 9.77252 26.4217 9.77252C15.2497 9.77252 10.2476 14.8174 10.2476 21.7118C10.2476 28.6065 9.0805 46.768 26.4217 46.768C43.763 46.768 42.5955 28.6068 42.5955 21.7118Z" fill="#FDCC9B"/>
<path d="M18.544 31.4653C19.511 31.4653 20.2949 30.5995 20.2949 29.5314C20.2949 28.4633 19.511 27.5975 18.544 27.5975C17.5771 27.5975 16.7932 28.4633 16.7932 29.5314C16.7932 30.5995 17.5771 31.4653 18.544 31.4653Z" fill="#3B2519"/>
<path d="M17.7804 29.2057C18.0696 29.2057 18.304 28.9693 18.304 28.6777C18.304 28.3861 18.0696 28.1497 17.7804 28.1497C17.4912 28.1497 17.2568 28.3861 17.2568 28.6777C17.2568 28.9693 17.4912 29.2057 17.7804 29.2057Z" fill="white"/>
<path d="M15.7431 25.3618C16.571 25.6813 17.9004 24.2752 20.9437 25.4986C21.4982 25.7217 21.8294 23.5912 18.5675 23.5912C15.7431 23.5912 15.2428 25.1685 15.7431 25.3618Z" fill="#684B37"/>
<path d="M34.5162 31.4653C35.4832 31.4653 36.267 30.5995 36.267 29.5314C36.267 28.4633 35.4832 27.5975 34.5162 27.5975C33.5493 27.5975 32.7654 28.4633 32.7654 29.5314C32.7654 30.5995 33.5493 31.4653 34.5162 31.4653Z" fill="#3B2519"/>
<path d="M33.7531 29.2058C34.0424 29.2058 34.277 28.9693 34.277 28.6775C34.277 28.3857 34.0424 28.1492 33.7531 28.1492C33.4638 28.1492 33.2292 28.3857 33.2292 28.6775C33.2292 28.9693 33.4638 29.2058 33.7531 29.2058Z" fill="white"/>
<path d="M37.1003 25.3617C36.2724 25.6812 34.9433 24.2751 31.9 25.4985C31.3455 25.7216 31.0142 23.5912 34.2762 23.5912C37.1003 23.5912 37.6006 25.1684 37.1003 25.3617Z" fill="#684B37"/>
<path d="M26.4218 36.3338C24.6917 36.3338 23.6497 35.0303 23.6497 35.661C23.6497 36.2915 24.15 37.49 26.4218 37.49C28.6937 37.49 29.1937 36.2918 29.1937 35.661C29.1937 35.0303 28.1517 36.3338 26.4218 36.3338Z" fill="#FCBC85"/>
<path d="M26.4218 42.1318C25.8234 42.1318 25.4629 41.681 25.4629 41.8993C25.4629 42.1175 25.6359 42.532 26.4218 42.532C27.2078 42.532 27.3805 42.1175 27.3805 41.8993C27.3805 41.681 27.02 42.1318 26.4218 42.1318Z" fill="#FCBC85"/>
<path d="M26.4218 40.525C23.6794 40.525 22.0276 39.3985 22.0276 39.684C22.0276 39.9692 22.8206 41.0925 26.4218 41.0925C30.023 41.0925 30.816 39.9692 30.816 39.684C30.816 39.3988 29.1639 40.525 26.4218 40.525Z" fill="#F7945E"/>
<path d="M16.2922 38.1077C17.6044 38.1077 18.6681 37.0349 18.6681 35.7115C18.6681 34.3882 17.6044 33.3154 16.2922 33.3154C14.98 33.3154 13.9163 34.3882 13.9163 35.7115C13.9163 37.0349 14.98 38.1077 16.2922 38.1077Z" fill="#F9AA8D"/>
<path d="M36.8432 38.1077C38.1554 38.1077 39.2192 37.0349 39.2192 35.7115C39.2192 34.3882 38.1554 33.3154 36.8432 33.3154C35.531 33.3154 34.4673 34.3882 34.4673 35.7115C34.4673 37.0349 35.531 38.1077 36.8432 38.1077Z" fill="#F9AA8D"/>
<path d="M26.4217 49.038V59.6323H8.16382C8.16382 55.3443 16.834 49.038 26.4217 49.038Z" fill="#8FD6E7"/>
<path d="M26.4216 49.038V59.6323H44.6793C44.6793 55.3443 36.0093 49.038 26.4216 49.038Z" fill="#8FD6E7"/>
<path d="M26.422 59.1526V49.038C23.7511 49.038 21.1604 49.5391 18.7998 50.3377L26.422 59.1526Z" fill="#F6B1CF"/>
<path d="M26.4216 59.1526V49.038C29.0923 49.038 31.6829 49.5391 34.0438 50.3377L26.4216 59.1526Z" fill="#F6B1CF"/>
<path d="M26.4215 49.038C24.479 49.038 22.5798 49.3066 20.7773 49.7551C21.034 51.3286 22.0877 54.5568 26.4215 54.5568C30.755 54.5568 31.8087 51.3286 32.0654 49.7551C30.2632 49.3063 28.3641 49.038 26.4215 49.038Z" fill="#F283B4"/>
<path d="M22.2534 49.4046C22.2534 49.4046 22.2531 53.1915 26.4219 53.1915C30.5903 53.1915 30.5903 49.4046 30.5903 49.4046C30.5903 49.4046 26.2653 47.8165 22.2534 49.4046Z" fill="#FDCC9B"/>
<path d="M20.0421 49.8282C20.1669 49.0098 15.1867 49.6131 15.2273 51.9223C15.2684 54.2315 20.7299 56.0081 22.2306 56.849C23.7313 57.6897 26.3991 59.6319 26.3991 59.6319C26.3991 59.6319 26.8994 57.6811 24.5649 56.176C22.2309 54.6714 19.8754 50.9214 20.0421 49.8282Z" fill="#3ABDAA"/>
<path d="M32.7403 49.8282C32.6155 49.0098 37.5957 49.6131 37.5552 51.9223C37.5141 54.2315 32.0525 56.0081 30.5519 56.849C29.0512 57.6897 26.3834 59.6319 26.3834 59.6319C26.3834 59.6319 25.8831 57.6811 28.2176 56.176C30.5516 54.6714 32.9071 50.9214 32.7403 49.8282Z" fill="#3ABDAA"/>
<path d="M26.4217 0.514893C7.66289 0.514893 5.16187 17.0328 5.16187 29.2055C5.16187 41.3784 11.4104 48.4473 16.2922 50.4216C16.2922 50.4216 8.49675 36.4892 12.3317 23.5911C15.4694 13.038 26.4217 16.1541 26.4217 16.1541C26.4217 16.1541 37.3734 13.0377 40.5114 23.5911C44.3463 36.4892 36.5508 50.4216 36.5508 50.4216C41.4329 48.4473 47.6815 41.3784 47.6815 29.2055C47.6815 17.0328 45.1805 0.514893 26.4217 0.514893Z" fill="#401900"/>
<path d="M32.765 19.0687C32.765 19.0687 25.7243 22.6282 19.5066 21.9136C13.2892 21.1988 10.9011 27.6996 11.2806 32.0019L9.20557 22.4265L12.9574 14.8508L23.6495 9.30161L33.7526 9.77242L38.5439 13.968L42.6123 19.0687L45.4721 22.4265L44.0962 32.76L41.1839 36.2922C41.1842 36.2922 43.8191 23.0343 32.765 19.0687Z" fill="#401900"/>
</svg>
