<svg width="46" height="61" viewBox="0 0 46 61" fill="none" xmlns="http://www.w3.org/2000/svg">
<path d="M27.6166 45.3846H18.3831V55.3712H27.6166V45.3846Z" fill="#FDCC9B"/>
<path d="M18.3835 46.5606C18.3835 46.5606 22.2676 48.9492 27.6171 48.3959V45.3843H18.3835V46.5606Z" fill="#FCBC85"/>
<path d="M5.06891 34.8627C7.55719 34.8627 9.57435 32.6403 9.57435 29.8988C9.57435 27.1573 7.55719 24.9349 5.06891 24.9349C2.58063 24.9349 0.563477 27.1573 0.563477 29.8988C0.563477 32.6403 2.58063 34.8627 5.06891 34.8627Z" fill="#FCBC85"/>
<path d="M40.9315 34.8627C43.4197 34.8627 45.4369 32.6403 45.4369 29.8988C45.4369 27.1573 43.4197 24.9349 40.9315 24.9349C38.4432 24.9349 36.426 27.1573 36.426 29.8988C36.426 32.6403 38.4432 34.8627 40.9315 34.8627Z" fill="#FCBC85"/>
<path d="M40.9134 20.4175C40.9134 13.106 35.3732 7.75568 23.0003 7.75568C10.6274 7.75568 5.08729 13.1057 5.08729 20.4175C5.08729 27.7293 3.79468 46.9895 23.0003 46.9895C42.206 46.9895 40.9134 27.7293 40.9134 20.4175Z" fill="#FDCC9B"/>
<path d="M14.275 30.761C15.3459 30.761 16.2141 29.8428 16.2141 28.7101C16.2141 27.5775 15.3459 26.6592 14.275 26.6592C13.2041 26.6592 12.3359 27.5775 12.3359 28.7101C12.3359 29.8428 13.2041 30.761 14.275 30.761Z" fill="#3B2519"/>
<path d="M13.43 28.3645C13.7502 28.3645 14.0098 28.1138 14.0098 27.8045C14.0098 27.4952 13.7502 27.2445 13.43 27.2445C13.1097 27.2445 12.8501 27.4952 12.8501 27.8045C12.8501 28.1138 13.1097 28.3645 13.43 28.3645Z" fill="white"/>
<path d="M11.1731 23.6276C12.09 24.0705 13.5623 22.123 16.9325 23.8172C17.5469 24.126 17.9135 21.1757 14.3011 21.1757C11.1731 21.1757 10.619 23.3603 11.1731 23.6276Z" fill="#51362A"/>
<path d="M31.9645 30.761C33.0354 30.761 33.9035 29.8428 33.9035 28.7101C33.9035 27.5775 33.0354 26.6592 31.9645 26.6592C30.8935 26.6592 30.0254 27.5775 30.0254 28.7101C30.0254 29.8428 30.8935 30.761 31.9645 30.761Z" fill="#3B2519"/>
<path d="M31.1189 28.3645C31.4392 28.3645 31.6988 28.1138 31.6988 27.8045C31.6988 27.4952 31.4392 27.2445 31.1189 27.2445C30.7987 27.2445 30.5391 27.4952 30.5391 27.8045C30.5391 28.1138 30.7987 28.3645 31.1189 28.3645Z" fill="white"/>
<path d="M34.8269 23.6276C33.91 24.0705 32.4377 22.123 29.0675 23.8172C28.4531 24.126 28.0865 21.1757 31.6992 21.1757C34.8269 21.1757 35.3807 23.3603 34.8269 23.6276Z" fill="#51362A"/>
<path d="M23.0004 35.9241C21.0843 35.9241 19.9302 34.542 19.9302 35.2106C19.9302 35.8795 20.4843 37.1502 23.0004 37.1502C25.5165 37.1502 26.0706 35.8795 26.0706 35.2106C26.0706 34.5417 24.9162 35.9241 23.0004 35.9241Z" fill="#FCBC85"/>
<path d="M23.0003 42.0725C22.3375 42.0725 21.9382 41.5945 21.9382 41.8259C21.9382 42.0574 22.1298 42.4966 23.0003 42.4966C23.8707 42.4966 24.062 42.0574 24.062 41.8259C24.062 41.5945 23.6628 42.0725 23.0003 42.0725Z" fill="#FCBC85"/>
<path d="M23 40.3688C19.9631 40.3688 18.1333 39.1746 18.1333 39.4773C18.1333 39.78 19.0116 40.971 23 40.971C26.9884 40.971 27.8666 39.78 27.8666 39.4773C27.8663 39.1746 26.0369 40.3688 23 40.3688Z" fill="#F7945E"/>
<path d="M23.0002 49.397V60.6322H0.563477C0.563477 56.0845 12.3816 49.397 23.0002 49.397Z" fill="#F7941E"/>
<path d="M23.0002 49.397V60.6322H45.4369C45.4369 56.0845 33.6188 49.397 23.0002 49.397Z" fill="#F7941E"/>
<path d="M23.0002 49.397C20.7417 49.397 18.4291 49.7018 16.1873 50.2221C16.2023 50.2412 18.6738 53.3204 23.0002 53.3204C27.0065 53.3204 29.6699 50.6835 30.056 50.2779C27.7384 49.7225 25.3404 49.397 23.0002 49.397Z" fill="#F36C21"/>
<path d="M18.3831 49.786C18.3831 49.786 19.7335 51.4034 22.9997 51.4034C26.2659 51.4034 27.6166 49.786 27.6166 49.786C27.6166 49.786 22.8269 48.1021 18.3831 49.786Z" fill="#FDCC9B"/>
<path d="M37.7273 6.19578C37.7273 6.19578 31.0793 -1.96294 17.2617 1.11326C3.4445 4.18916 2.40916 12.2144 2.82474 20.0222C3.24032 27.8302 4.34823 32.4107 5.65874 31.8447C6.96925 31.2783 6.28729 26.1245 6.42582 24.9351C6.56435 23.7457 7.81078 18.3668 16.2145 19.1695C24.6178 19.9721 31.6994 17.0294 31.6994 17.0294C31.6994 17.0294 34.55 20.509 36.4259 21.1758C40.1746 22.5077 38.9452 31.3893 40.414 31.3893C41.8828 31.3893 49.0847 10.877 37.7273 6.19578Z" fill="#51362A"/>
</svg>
