<svg width="42" height="42" viewBox="0 0 42 42" fill="none" xmlns="http://www.w3.org/2000/svg">
<path d="M21.0046 42C32.6005 42 42.0008 32.598 42.0008 21C42.0008 9.40202 32.6005 0 21.0046 0C9.40865 0 0.00830078 9.40202 0.00830078 21C0.00830078 32.598 9.40865 42 21.0046 42Z" fill="#393A59"/>
<path d="M15.9301 8.42334C15.9301 9.79563 14.8178 10.9091 13.4448 10.9091H2.58594C3.72748 8.8288 5.21174 6.96276 6.96261 5.38733C7.38851 5.73192 7.93098 5.93761 8.52144 5.93761H13.4448C14.1313 5.93761 14.7526 6.21533 15.2025 6.66535C15.6525 7.11529 15.9301 7.7367 15.9301 8.42334Z" fill="#6A6577"/>
<path d="M34.2167 25.2229L34.6894 26.1808C34.7243 26.2517 34.792 26.3009 34.8701 26.3122L35.9271 26.4658C36.1239 26.4944 36.2026 26.7364 36.06 26.8753L35.2953 27.6209C35.2387 27.676 35.2129 27.7555 35.2262 27.8334L35.4067 28.8862C35.4404 29.0823 35.2346 29.2318 35.0584 29.1393L34.1131 28.6423C34.0432 28.6055 33.9596 28.6055 33.8897 28.6423L32.9443 29.1393C32.7682 29.2318 32.5625 29.0823 32.596 28.8862L32.7766 27.8334C32.79 27.7554 32.7642 27.676 32.7076 27.6209L31.9428 26.8753C31.8004 26.7364 31.879 26.4943 32.0758 26.4658L33.1328 26.3122C33.2109 26.3008 33.2785 26.2516 33.3135 26.1808L33.7861 25.2229C33.8742 25.0445 34.1287 25.0445 34.2167 25.2229Z" fill="#F9D368"/>
<path d="M14.7651 14.418L15.2377 15.3759C15.2727 15.4468 15.3404 15.4959 15.4184 15.5073L16.4754 15.6608C16.6723 15.6895 16.751 15.9314 16.6084 16.0703L15.8436 16.816C15.787 16.8711 15.7613 16.9506 15.7745 17.0285L15.9551 18.0813C15.9887 18.2773 15.7829 18.4269 15.6068 18.3344L14.6615 17.8373C14.5916 17.8006 14.508 17.8006 14.438 17.8373L13.4927 18.3344C13.3166 18.4269 13.1108 18.2773 13.1444 18.0813L13.3249 17.0285C13.3383 16.9505 13.3125 16.8711 13.2559 16.816L12.4912 16.0703C12.3488 15.9315 12.4274 15.6894 12.6241 15.6608L13.6811 15.5073C13.7593 15.4958 13.8269 15.4467 13.8618 15.3759L14.3345 14.418C14.4226 14.2396 14.677 14.2396 14.7651 14.418Z" fill="#F9D368"/>
<path d="M19.1553 21.7038C19.1553 23.0769 18.0421 24.1895 16.67 24.1895H6.18478C4.81192 24.1895 3.6995 23.0761 3.6995 21.7038C3.6995 21.0172 3.421 20.3958 2.97107 19.9458C2.52203 19.4967 1.89983 19.218 1.21421 19.218H0.0830078C0.226972 17.4926 0.580935 15.8272 1.11742 14.2466H10.8126C12.1846 14.2466 13.2978 15.3591 13.2978 16.7323C13.2978 18.1046 14.4102 19.218 15.7831 19.218H16.6701C18.0421 19.2181 19.1553 20.3307 19.1553 21.7038Z" fill="#6A6577"/>
<path d="M41.946 19.4804H31.4848C30.1119 19.4804 28.9995 18.3669 28.9995 16.9947C28.9995 16.3081 28.721 15.6867 28.2711 15.2367C27.822 14.7876 27.1998 14.5089 26.5142 14.5089H24.9716C23.5987 14.5089 22.4863 13.3955 22.4863 12.0232C22.4863 11.3366 22.764 10.7152 23.2139 10.2652C23.6639 9.8161 24.2852 9.53748 24.9716 9.53748H36.1125C37.4845 9.53748 38.5977 10.65 38.5977 12.0232C38.5977 13.3595 39.6527 14.4506 40.9767 14.5064C41.491 16.0895 41.8226 17.7567 41.946 19.4804Z" fill="#6A6577"/>
<path d="M29.5409 15.2613C26.6212 21.4317 19.2775 24.0859 13.0952 21.2265C6.86611 18.3455 4.14105 10.8325 7.07685 4.62814C7.38217 3.98285 7.73597 3.37621 8.13176 2.81026C8.50336 2.27893 7.88264 1.62298 7.33475 1.96954C4.8863 3.51864 2.8352 5.76069 1.51008 8.57829C-2.19919 16.4651 1.15726 25.8179 9.03402 29.5463C16.9058 33.2723 26.307 29.9103 30.0323 22.0372C31.3586 19.2342 31.7864 16.2373 31.4324 13.3718C31.3532 12.7307 30.452 12.6711 30.2774 13.2932C30.0909 13.9579 29.8462 14.6162 29.5409 15.2613Z" fill="#F9D368"/>
<path d="M23.3172 37.052C23.3172 38.4243 22.2049 39.5377 20.8319 39.5377H11.1299C5.88518 36.7382 1.96871 31.7762 0.568359 25.8431C1.00115 25.1128 1.79726 24.6234 2.70739 24.6234H13.8482C14.5347 24.6234 15.1552 24.9011 15.6051 25.3512C16.055 25.8012 16.3335 26.4226 16.3335 27.1091C16.3335 28.4814 15.2203 29.5949 13.8482 29.5949H12.3057C10.9328 29.5949 9.82036 30.7074 9.82036 32.0806C9.82036 33.4529 10.9327 34.5663 12.3057 34.5663H20.8318C21.5183 34.5663 22.1396 34.844 22.5895 35.2941C23.0395 35.7441 23.3172 36.3654 23.3172 37.052Z" fill="#6A6577"/>
<path d="M23.2758 3.84264L23.7485 4.80052C23.7834 4.8714 23.8511 4.92055 23.9292 4.93187L24.9862 5.08546C25.183 5.11409 25.2617 5.35605 25.1191 5.49495L24.3544 6.24058C24.2978 6.29571 24.272 6.37521 24.2853 6.45307L24.4658 7.50588C24.4995 7.70197 24.2936 7.85154 24.1175 7.75899L23.1722 7.26196C23.1022 7.2252 23.0187 7.2252 22.9488 7.26196L22.0034 7.75899C21.8273 7.85154 21.6216 7.70197 21.6551 7.50588L21.8357 6.45307C21.849 6.37513 21.8233 6.29571 21.7667 6.24058L21.0019 5.49495C20.8595 5.35613 20.9381 5.11401 21.1349 5.08546L22.1919 4.93187C22.27 4.92047 22.3376 4.87132 22.3726 4.80052L22.8452 3.84264C22.9333 3.66427 23.1877 3.66427 23.2758 3.84264Z" fill="#F9D368"/>
<path d="M40.9052 27.709C39.3618 32.2913 36.2801 36.1664 32.2744 38.7199C31.8262 38.0744 31.0789 37.6519 30.2339 37.6519H28.6913C28.0049 37.6519 27.3836 37.3734 26.9337 36.9233C26.4846 36.4742 26.2061 35.8519 26.2061 35.1662C26.2061 33.7931 27.3184 32.6804 28.6913 32.6804H30.2339C30.9204 32.6804 31.5408 32.4019 31.9908 31.9519C32.4407 31.5028 32.7192 30.8804 32.7192 30.1947C32.7192 28.8216 33.8316 27.709 35.2045 27.709H40.9052Z" fill="#6A6577"/>
</svg>
