<svg width="52" height="45" viewBox="0 0 52 45" fill="none" xmlns="http://www.w3.org/2000/svg">
<path d="M31.2973 8.25862L30.4671 6.91034C27.8031 2.58363 23.1467 0 18.0111 0C9.98625 0 3.45801 6.39582 3.45801 14.2579C3.45801 18.7443 5.66529 23.0234 9.36402 25.7039L9.92819 26.1122L10.6258 26.1878C11.0843 26.2371 11.521 26.3262 11.9231 26.4536L16.2302 27.8095L15.257 23.4811C15.0256 22.4503 15.2822 21.3975 15.9616 20.5892C16.6228 19.803 17.5986 19.3522 18.6403 19.3522C18.9974 19.3522 19.3492 19.4057 19.6603 19.5025L21.9915 20.2641L22.8989 18.026C23.3192 16.9902 24.2265 16.2201 25.3245 15.9671C25.7145 15.8779 26.1331 15.8584 26.5343 15.9068L29.5675 16.2651L29.4427 13.2739L29.4245 12.9844C29.4245 11.7864 29.7738 10.6113 30.4359 9.58906L31.2973 8.25862Z" fill="#F0C419"/>
<path d="M51.9774 18.6797H51.9072C51.9375 18.9378 51.9583 19.1985 51.9583 19.4651C51.9583 19.9346 51.571 20.3141 51.0917 20.3141C50.6125 20.3141 50.2251 19.9346 50.2251 19.4651C50.2251 16.6556 47.893 14.3709 45.0254 14.3709C42.1577 14.3709 39.8257 16.6556 39.8257 19.4651C39.8257 19.9346 39.4383 20.3141 38.9591 20.3141C38.4798 20.3141 38.0924 19.9346 38.0924 19.4651C38.0924 16.0146 40.7348 13.1627 44.1397 12.7348C43.9439 8.45644 40.3405 5.03141 35.9259 5.03141C31.4966 5.03141 27.8828 8.47851 27.7095 12.7772C28.4279 12.9436 29.1238 13.2187 29.7703 13.6101C31.3441 14.5653 32.4447 16.0638 32.8693 17.8298C32.9785 18.2866 32.6899 18.7434 32.2246 18.8512C31.7583 18.954 31.2921 18.6755 31.182 18.2196C30.5251 15.4839 27.7164 13.7825 24.9302 14.4269C22.1388 15.0705 20.4021 17.818 21.059 20.5527C21.1682 21.0087 20.8796 21.4654 20.4134 21.5733C20.3475 21.5886 20.2808 21.5953 20.2149 21.5953C19.8224 21.5953 19.4662 21.3313 19.3717 20.9407C19.1169 19.8786 19.1395 18.8164 19.3821 17.8214C17.5986 17.5658 15.7969 18.2255 14.6218 19.623C13.5316 20.9212 13.2135 22.593 13.6035 24.1102C13.6044 24.1204 13.6096 24.1289 13.6104 24.1391C13.8756 25.146 14.4511 26.0834 15.3307 26.794C15.6999 27.0929 15.7527 27.6269 15.4494 27.9895C15.2778 28.1932 15.03 28.2985 14.7795 28.2985C14.5854 28.2985 14.3913 28.2357 14.2292 28.1049C13.1745 27.2542 12.4197 26.1428 12.0228 24.8947C8.51905 23.9998 4.83506 25.444 2.93196 28.5133C1.79062 30.354 1.44831 32.5208 1.97001 34.6137C2.49172 36.7074 3.81331 38.476 5.69301 39.595C6.10205 39.8387 6.23205 40.36 5.98333 40.7616C5.8204 41.0248 5.53442 41.1691 5.24237 41.1691C5.12711 41.1691 5.01271 41.1386 4.90265 41.0919C6.27191 41.8866 7.84829 42.3731 9.53387 42.4444L16.6479 42.4469C21.2471 42.3748 25.1867 39.5942 26.8663 35.6614C28.5674 39.6459 32.5885 42.4537 37.2657 42.4537C45.3894 42.4537 51.9982 35.9789 51.9982 28.02V19.5296L51.9774 18.6797Z" fill="#D0E8F9"/>
<path d="M45.8739 12.7925C45.6737 7.58024 41.2947 3.39702 35.9268 3.39702C30.604 3.39702 26.2553 7.50977 25.9867 12.6601C25.5031 12.6702 25.0169 12.7263 24.5342 12.8375C22.5098 13.3045 20.9074 14.6052 20.0027 16.2778C17.5051 15.7811 14.9347 16.6454 13.2864 18.6059C12.2022 19.8964 11.658 21.4994 11.7178 23.1559C7.70535 22.4478 3.62357 24.1951 1.45356 27.6932C0.0704348 29.9219 -0.342943 32.5446 0.287956 35.0781C0.918855 37.6117 2.5195 39.7529 4.79438 41.108C4.93477 41.1921 5.09076 41.232 5.24415 41.232C5.53707 41.232 5.82219 41.0868 5.98511 40.8244C6.23383 40.4228 6.10384 39.9015 5.69479 39.6578C3.8151 38.5388 2.4935 36.7703 1.9718 34.6765C1.45009 32.5836 1.79241 30.4169 2.93375 28.5762C4.83684 25.5077 8.52084 24.0635 12.0246 24.9576C12.4215 26.2065 13.1772 27.317 14.231 28.1678C14.3931 28.2977 14.5872 28.3614 14.7813 28.3614C15.0318 28.3614 15.2796 28.2561 15.4512 28.0523C15.7554 27.6898 15.7016 27.1549 15.3325 26.8569C14.452 26.1471 13.8774 25.2089 13.6122 24.2019C13.6114 24.1917 13.6062 24.1832 13.6053 24.173C13.2153 22.6558 13.5334 20.984 14.6236 19.6859C15.7987 18.2883 17.6004 17.6286 19.3839 17.8842C19.1413 18.8801 19.1179 19.9414 19.3735 21.0036C19.4671 21.395 19.8242 21.6582 20.2167 21.6582C20.2826 21.6582 20.3493 21.6505 20.4152 21.6361C20.8814 21.5283 21.17 21.0715 21.0608 20.6156C20.4039 17.8808 22.1406 15.1333 24.932 14.4897C27.7182 13.8453 30.5269 15.5468 31.1838 18.2824C31.2939 18.7383 31.7601 19.0168 32.2263 18.9141C32.6917 18.8063 32.9803 18.3495 32.8711 17.8927C32.4465 16.1267 31.3459 14.6281 29.7721 13.673C29.1256 13.2807 28.4297 13.0065 27.7113 12.84C27.8846 8.54136 31.4984 5.09425 35.9277 5.09425C40.3422 5.09425 43.9465 8.51843 44.1415 12.7976C40.7365 13.2255 38.0942 16.0774 38.0942 19.5279C38.0942 19.9975 38.4816 20.377 38.9608 20.377C39.4401 20.377 39.8275 19.9975 39.8275 19.5279C39.8275 16.7185 42.1595 14.4337 45.0272 14.4337C47.8948 14.4337 50.2668 16.7185 50.2668 19.5279C50.2668 19.5517 50.2668 20.6546 50.2668 22.0751C50.2668 22.5437 50.655 22.9241 51.1334 22.9241C51.6118 22.9241 52 22.5437 52 22.0751V19.5279C51.9983 16.0647 49.297 13.2034 45.8739 12.7925Z" fill="#ABCADD"/>
<path d="M41.5988 30.5663C42.0772 30.5663 42.4654 30.1859 42.4654 29.7173C42.4654 28.493 42.4654 29.2928 42.4654 29.2928C42.4654 27.1863 44.2151 25.4721 46.3652 25.4721C48.5153 25.4721 50.265 27.1863 50.265 29.2928C50.265 29.7623 50.6532 30.1418 51.1316 30.1418C51.61 30.1418 51.9982 29.7623 51.9982 29.2928C51.9982 26.2498 49.4712 23.774 46.3652 23.774C43.4057 23.774 40.9549 26.0231 40.7322 28.8682V29.7173C40.7322 30.1859 41.1204 30.5663 41.5988 30.5663Z" fill="#ABCADD"/>
<path d="M25.3867 35.9093L22.7869 38.4564C22.448 38.7884 22.448 39.325 22.7869 39.657C22.9558 39.8226 23.1777 39.9058 23.3996 39.9058C23.6214 39.9058 23.8433 39.8226 24.0123 39.657L26.6121 37.1099C26.951 36.7779 26.951 36.2413 26.6121 35.9093C26.2733 35.5774 25.7256 35.5774 25.3867 35.9093Z" fill="#ABC5D3"/>
<path d="M20.187 41.0036L17.5871 43.5507C17.2483 43.8827 17.2483 44.4193 17.5871 44.7512C17.7561 44.9168 17.978 45 18.1998 45C18.4217 45 18.6436 44.9168 18.8125 44.7512L21.4124 42.2041C21.7512 41.8721 21.7512 41.3355 21.4124 41.0036C21.0736 40.6716 20.5259 40.6716 20.187 41.0036Z" fill="#ABC5D3"/>
<path d="M38.7449 30.8151C38.4061 30.4831 37.8584 30.4831 37.5195 30.8151L34.9197 33.3622C34.5808 33.6942 34.5808 34.2308 34.9197 34.5627C35.0887 34.7283 35.3105 34.8115 35.5324 34.8115C35.7542 34.8115 35.9761 34.7283 36.1451 34.5627L38.7449 32.0156C39.0838 31.6837 39.0838 31.1462 38.7449 30.8151Z" fill="#ABC5D3"/>
<path d="M32.3198 35.9093L29.72 38.4564C29.3811 38.7884 29.3811 39.325 29.72 39.657C29.8889 39.8226 30.1108 39.9058 30.3327 39.9058C30.5545 39.9058 30.7764 39.8226 30.9454 39.657L33.5452 37.1099C33.8841 36.7779 33.8841 36.2413 33.5452 35.9093C33.2064 35.5774 32.6587 35.5774 32.3198 35.9093Z" fill="#ABC5D3"/>
<path d="M24.879 30.8151C24.5401 30.4831 23.9924 30.4831 23.6536 30.8151L21.0537 33.3622C20.7148 33.6942 20.7148 34.2308 21.0537 34.5627C21.2227 34.7283 21.4445 34.8115 21.6664 34.8115C21.8883 34.8115 22.1101 34.7283 22.2791 34.5627L24.879 32.0156C25.2178 31.6837 25.2178 31.1462 24.879 30.8151Z" fill="#ABC5D3"/>
<path d="M31.8118 30.8151C31.473 30.4831 30.9253 30.4831 30.5864 30.8151L27.9866 33.3622C27.6477 33.6942 27.6477 34.2308 27.9866 34.5627C28.1555 34.7283 28.3774 34.8115 28.5993 34.8115C28.8211 34.8115 29.043 34.7283 29.212 34.5627L31.8118 32.0156C32.1507 31.6837 32.1507 31.1462 31.8118 30.8151Z" fill="#ABC5D3"/>
<path d="M19.6792 35.9093C19.3404 35.5774 18.7927 35.5774 18.4538 35.9093L15.854 38.4564C15.5151 38.7884 15.5151 39.325 15.854 39.657C16.023 39.8226 16.2448 39.9058 16.4667 39.9058C16.6885 39.9058 16.9104 39.8226 17.0794 39.657L19.6792 37.1099C20.0181 36.7779 20.0181 36.2405 19.6792 35.9093Z" fill="#ABC5D3"/>
</svg>
